name analog
datacolumns 19
datarows 40
range 0.5010000000000001 0.5205000000000001
endheader
time	ground_force_vx	ground_force_vy	ground_force_vz	ground_force_px	ground_force_py	ground_force_pz	l_ground_force_vx	l_ground_force_vy	l_ground_force_vz	l_ground_force_px	l_ground_force_py	l_ground_force_pz	ground_torque_x	ground_torque_y	ground_torque_z	l_ground_torque_x	l_ground_torque_y	l_ground_torque_z
0.5010000000000001	-0.0	-0.0	-0.0	3.2662782669067383	50.28385543823242	-449.4880981445313	10.654489517211914	-50.178836822509766	-431.7078857421875	-0.0	-0.0	-0.0	-0.0	-0.0	-0.0	113075.34375	12255.0341796875	-5532.8994140625
0.5015000000000001	-0.0	-0.0	-0.0	2.896026372909546	49.66550827026367	-450.494140625	10.951233863830566	-49.72511291503906	-431.16644287109375	-0.0	-0.0	-0.0	-0.0	-0.0	-0.0	112908.7734375	12363.6923828125	-5575.59765625
0.5020000000000001	-0.0	-0.0	-0.0	2.978837490081787	49.20645523071289	-449.08111572265625	11.168615341186523	-49.48204803466797	-430.3469848632813	-0.0	-0.0	-0.0	-0.0	-0.0	-0.0	112439.2890625	12265.2763671875	-5646.77392578125
0.5025000000000001	-0.0	-0.0	-0.0	2.8260273933410645	49.14588928222656	-448.8917236328125	11.34615421295166	-49.539676666259766	-430.7306518554688	-0.0	-0.0	-0.0	-0.0	-0.0	-0.0	112399.8046875	12301.4970703125	-5587.255859375
0.5030000000000001	-0.0	-0.0	-0.0	2.5933094024658203	48.63613128662109	-449.0314636230469	11.767189025878906	-49.50862503051758	-430.9555358886719	-0.0	-0.0	-0.0	-0.0	-0.0	-0.0	112609.2578125	12559.919921875	-5481.572265625
0.5035000000000001	-0.0	-0.0	-0.0	2.9317374229431152	48.4332275390625	-450.1157531738281	11.77281379699707	-49.33193206787109	-431.2697448730469	-0.0	-0.0	-0.0	-0.0	-0.0	-0.0	112731.6328125	12723.35546875	-5557.06689453125
0.5040000000000001	-0.0	-0.0	-0.0	2.14105224609375	47.77389526367188	-449.22113037109375	12.31385326385498	-48.47173690795898	-430.27935791015625	-0.0	-0.0	-0.0	-0.0	-0.0	-0.0	112796.375	12678.0810546875	-5445.48876953125
0.5045000000000001	-0.0	-0.0	-0.0	1.5224281549453735	47.59563446044922	-450.139404296875	12.717517852783203	-48.0469970703125	-431.2677612304688	-0.0	-0.0	-0.0	-0.0	-0.0	-0.0	112882.078125	12907.134765625	-5488.224609375
0.5050000000000001	-0.0	-0.0	-0.0	0.356842041015625	47.63733673095703	-450.4015808105469	12.339001655578612	-47.39683532714844	-432.8511657714844	-0.0	-0.0	-0.0	-0.0	-0.0	-0.0	113033.6640625	12955.61328125	-5434.525390625
0.5055000000000001	-0.0	-0.0	-0.0	0.0361565947532653	48.046913146972656	-452.1595153808594	12.161480903625488	-47.22789764404297	-433.2652587890625	-0.0	-0.0	-0.0	-0.0	-0.0	-0.0	113222.40625	13141.46875	-5617.9794921875
0.5060000000000001	-0.0	-0.0	-0.0	-0.9449280500411988	48.04676055908203	-453.2956237792969	12.500269889831545	-46.33660125732422	-434.12310791015625	-0.0	-0.0	-0.0	-0.0	-0.0	-0.0	113791.609375	13414.42578125	-5404.39306640625
0.5065000000000001	-0.0	-0.0	-0.0	-1.3015944957733154	48.06271743774414	-454.6275024414063	12.959609031677246	-45.15704345703125	-435.0121154785156	-0.0	-0.0	-0.0	-0.0	-0.0	-0.0	113919.0703125	13619.857421875	-5368.82470703125
0.5070000000000001	-0.0	-0.0	-0.0	-1.2069456577301023	47.5117073059082	-455.5608825683594	13.273783683776855	-44.57950973510742	-435.6119995117188	-0.0	-0.0	-0.0	-0.0	-0.0	-0.0	114145.8046875	13805.5791015625	-5204.0693359375
0.5075000000000001	-0.0	-0.0	-0.0	-1.2591590881347656	47.73698425292969	-456.6616821289063	13.443473815917969	-43.71923828125	-436.19036865234375	-0.0	-0.0	-0.0	-0.0	-0.0	-0.0	114392.90625	13874.796875	-5163.08642578125
0.5080000000000001	-0.0	-0.0	-0.0	-0.4831753969192505	47.90510177612305	-460.0267639160156	13.49150276184082	-43.656497955322266	-437.10845947265625	-0.0	-0.0	-0.0	-0.0	-0.0	-0.0	114750.4453125	14183.3828125	-5238.4443359375
0.5085000000000001	-0.0	-0.0	-0.0	0.2579629719257355	47.91000747680664	-462.7944641113281	13.162586212158203	-42.339332580566406	-437.996337890625	-0.0	-0.0	-0.0	-0.0	-0.0	-0.0	114865.53125	14344.6298828125	-5391.52734375
0.5090000000000001	-0.0	-0.0	-0.0	0.48355633020401	47.55343627929688	-465.4724426269531	13.184368133544922	-41.81673049926758	-439.5819091796875	-0.0	-0.0	-0.0	-0.0	-0.0	-0.0	115244.828125	14600.7900390625	-5400.099609375
0.5095000000000001	-0.0	-0.0	-0.0	0.985950767993927	47.3282470703125	-467.945068359375	12.822264671325684	-41.27976989746094	-440.1476135253906	-0.0	-0.0	-0.0	-0.0	-0.0	-0.0	115809.75	14920.583984375	-5564.5625
0.5100000000000001	-0.0	-0.0	-0.0	1.47421395778656	46.97172546386719	-469.20843505859375	12.426468849182127	-40.40370941162109	-442.5633850097656	-0.0	-0.0	-0.0	-0.0	-0.0	-0.0	116530.109375	15333.47265625	-5680.9248046875
0.5105000000000001	-0.0	-0.0	-0.0	1.822269320487976	46.04239273071289	-471.0729064941406	12.405824661254885	-39.615684509277344	-445.1683349609375	-0.0	-0.0	-0.0	-0.0	-0.0	-0.0	117341.4765625	15722.4814453125	-5877.00732421875
0.5110000000000001	-0.0	-0.0	-0.0	2.0009212493896484	45.81723785400391	-472.20159912109375	11.601044654846191	-38.68489837646485	-447.9615478515625	-0.0	-0.0	-0.0	-0.0	-0.0	-0.0	117647.6796875	15965.115234375	-6171.69580078125
0.5115000000000001	-0.0	-0.0	-0.0	2.20971417427063	44.78597640991211	-472.3700256347656	10.549993515014648	-38.10096740722656	-448.8733215332031	-0.0	-0.0	-0.0	-0.0	-0.0	-0.0	118387.640625	16542.833984375	-6468.93505859375
0.5120000000000001	-0.0	-0.0	-0.0	2.3194732666015625	44.46410751342773	-473.4930114746094	9.498526573181152	-37.48289108276367	-450.7038269042969	-0.0	-0.0	-0.0	-0.0	-0.0	-0.0	118649.3984375	16699.48828125	-6978.14306640625
0.5125000000000001	-0.0	-0.0	-0.0	2.323310852050781	43.81334686279297	-472.2167663574219	7.759034156799316	-37.00679016113281	-450.3180541992188	-0.0	-0.0	-0.0	-0.0	-0.0	-0.0	118785.484375	17220.125	-7495.10791015625
0.5130000000000001	-0.0	-0.0	-0.0	2.098315715789795	43.08148193359375	-470.95806884765625	6.114824771881104	-36.88978576660156	-450.0319519042969	-0.0	-0.0	-0.0	-0.0	-0.0	-0.0	118620.7421875	17791.8359375	-8034.34375
0.5135000000000001	-0.0	-0.0	-0.0	1.1670109033584597	42.51520538330078	-468.16162109375	3.8619790077209473	-36.56517791748047	-448.79827880859375	-0.0	-0.0	-0.0	-0.0	-0.0	-0.0	118175.0078125	18275.68359375	-8544.162109375
0.5140000000000001	-0.0	-0.0	-0.0	0.0533131211996078	41.8380241394043	-465.29388427734375	2.2531752586364746	-37.18936920166016	-447.7517395019531	-0.0	-0.0	-0.0	-0.0	-0.0	-0.0	117913.75	18601.44140625	-9146.3642578125
0.5145000000000001	-0.0	-0.0	-0.0	-1.2590410709381104	41.79879760742188	-464.22174072265625	0.0887107849121093	-37.377540588378906	-445.8205871582031	-0.0	-0.0	-0.0	-0.0	-0.0	-0.0	117359.2890625	18942.611328125	-9727.337890625
0.5150000000000001	-0.0	-0.0	-0.0	-2.633315324783325	40.92047882080078	-462.2998046875	-1.679809331893921	-37.589385986328125	-443.9574890136719	-0.0	-0.0	-0.0	-0.0	-0.0	-0.0	116964.9296875	19456.873046875	-10396.96484375
0.5155000000000001	-0.0	-0.0	-0.0	-3.380665063858032	41.1782455444336	-460.8752136230469	-3.423760414123535	-37.90114974975586	-442.441162109375	-0.0	-0.0	-0.0	-0.0	-0.0	-0.0	116523.171875	19756.119140625	-10869.1005859375
0.5160000000000001	-0.0	-0.0	-0.0	-3.876141309738159	40.772647857666016	-462.1180725097656	-4.441018581390381	-37.84857177734375	-442.0475463867188	-0.0	-0.0	-0.0	-0.0	-0.0	-0.0	116321.8828125	20203.294921875	-11134.955078125
0.5165000000000001	-0.0	-0.0	-0.0	-3.700807809829712	40.27838134765625	-463.1898498535156	-4.471904754638672	-37.7548713684082	-441.67681884765625	-0.0	-0.0	-0.0	-0.0	-0.0	-0.0	116176.421875	20427.044921875	-11121.0625
0.5170000000000001	-0.0	-0.0	-0.0	-3.2980499267578125	39.96540832519531	-464.2713012695313	-3.678884267807007	-36.96002578735352	-442.0054016113281	-0.0	-0.0	-0.0	-0.0	-0.0	-0.0	116412.4453125	20761.873046875	-11116.818359375
0.5175000000000001	-0.0	-0.0	-0.0	-2.451969623565674	39.62505722045898	-466.8829650878906	-3.151796340942383	-36.622100830078125	-442.4992370605469	-0.0	-0.0	-0.0	-0.0	-0.0	-0.0	116483.4140625	20862.796875	-10940.1708984375
0.5180000000000001	-0.0	-0.0	-0.0	-1.7742714881896973	39.12825012207031	-468.8316040039063	-2.4370596408843994	-35.87346267700195	-444.6739501953125	-0.0	-0.0	-0.0	-0.0	-0.0	-0.0	116947.9453125	21190.119140625	-10792.892578125
0.5185000000000001	-0.0	-0.0	-0.0	-0.8897371888160706	38.63448333740234	-470.1012573242188	-2.390333652496338	-35.41699981689453	-444.120849609375	-0.0	-0.0	-0.0	-0.0	-0.0	-0.0	117039.6640625	21281.22265625	-10839.6953125
0.5190000000000001	-0.0	-0.0	-0.0	-0.5743335485458374	38.09992980957031	-470.59912109375	-2.521200656890869	-35.24503707885742	-445.1868286132813	-0.0	-0.0	-0.0	-0.0	-0.0	-0.0	117465.453125	21616.8203125	-11072.2861328125
0.5195000000000001	-0.0	-0.0	-0.0	-0.7986658215522766	38.189208984375	-471.5119934082031	-2.9602975845336914	-35.110164642333984	-446.1046447753906	-0.0	-0.0	-0.0	-0.0	-0.0	-0.0	117462.078125	22226.560546875	-11138.119140625
0.5200000000000001	-0.0	-0.0	-0.0	-0.8505205512046814	37.52993392944336	-470.9774169921875	-3.095866680145264	-35.27330017089844	-448.0917663574219	-0.0	-0.0	-0.0	-0.0	-0.0	-0.0	117871.8984375	22400.0625	-11406.673828125
0.5205000000000001	-0.0	-0.0	-0.0	-1.5147188901901243	37.52204132080078	-472.7350463867188	-3.890217542648315	-35.76594924926758	-448.3791809082031	-0.0	-0.0	-0.0	-0.0	-0.0	-0.0	118257.3359375	22613.603515625	-11521.4990234375
